<svg xmlns="http://www.w3.org/2000/svg" version="1.1" xmlns:xlink="http://www.w3.org/1999/xlink" width="1028px" height="1028px"><svg xmlns="http://www.w3.org/2000/svg" version="1.1" xmlns:xlink="http://www.w3.org/1999/xlink" width="1028px" height="1028px"><svg version="1.1" id="Layer_1" xmlns="http://www.w3.org/2000/svg" xmlns:xlink="http://www.w3.org/1999/xlink" x="0px" y="0px" width="1028px" height="1028px" viewBox="0 0 1028 1028" style="enable-background:new 0 0 1028 1028;" xml:space="preserve">
<style type="text/css">
	.st0{fill:#D9141A;}
</style>
<g>
	<g>
		<g>
			<path class="st0" d="M496.6,503.21c-117.79,5-293.38,240.55-330.35,289.78C115.19,860.97,405.52,667.07,494.23,666
				c98.25-1.18,423.41,207.3,366.96,131.94C781.6,691.68,621.38,497.91,496.6,503.21z"></path>
			<path class="st0" d="M921.01,399.7c-9.17-29.13-20.43-55.05-31.91-77.33l2.45-0.01c0,0-134.65-229.39-212.87-229.39L328.61,92
				c-68.59,0-192.16,233.2-192.16,233.2l1,0c-10.98,21.64-21.68,46.59-30.46,74.5L18.5,936c64.38-30.03,247.79-282.93,336.35-476.91
				c12.8-4.81,19.74-9.55,39.76-7.88c0.29,0.02,0.53,0.02,0.74-0.01c33.65,25.65,78.57,41.71,118.78,41.71
				c39.11,0,83.2-16.27,116.74-41.7c0.16,0.01,0.33,0.01,0.53-0.01c21.23-1.77,27.75,3.67,42.15,8.75
				C762.26,653.82,945.22,906.02,1009.5,936L921.01,399.7z M514.13,468.43c-41.5,0-93.16-33.65-75.15-57.11
				c20.53-26.75,33.64-57.11,75.15-57.11c41.5,0,53.64,25.3,75.15,57.11C603.65,432.58,555.63,468.43,514.13,468.43z M658.37,425.35
				c0.03-0.03,0.05-0.06,0.08-0.09c0.18,0.43,0.36,0.87,0.54,1.3C658.75,426.1,658.54,425.69,658.37,425.35z"></path>
		</g>
	</g>
</g>
</svg></svg><style>@media (prefers-color-scheme: light) { :root { filter: contrast(1) brightness(1); } }
@media (prefers-color-scheme: dark) { :root { filter: none; } }
</style></svg>